<svg width="2191" height="408" viewBox="0 0 2191 408" fill="none" xmlns="http://www.w3.org/2000/svg">
<path d="M807.377 373.556L742.463 288.65L764.264 276.66L828.443 360.832L807.377 373.556ZM747.362 349.087C732.175 349.087 718.294 346.885 705.72 342.481C693.145 337.913 682.204 331.633 672.896 323.64C663.587 315.484 656.402 306.104 651.339 295.501C646.277 284.735 643.746 273.234 643.746 261C643.746 248.766 646.277 237.347 651.339 226.744C656.402 215.977 663.587 206.598 672.896 198.605C682.204 190.448 693.145 184.168 705.72 179.764C718.294 175.196 732.175 172.912 747.362 172.912C762.386 172.912 776.186 175.196 788.76 179.764C801.334 184.168 812.276 190.448 821.584 198.605C830.893 206.598 838.078 215.977 843.14 226.744C848.366 237.347 850.979 248.766 850.979 261C850.979 273.234 848.366 284.735 843.14 295.501C838.078 306.104 830.893 315.484 821.584 323.64C812.276 331.633 801.334 337.913 788.76 342.481C776.186 346.885 762.386 349.087 747.362 349.087ZM747.362 323.395C758.63 323.395 768.919 321.846 778.227 318.746C787.535 315.484 795.619 311.079 802.478 305.533C809.336 299.824 814.644 293.217 818.4 285.713C822.156 278.047 824.034 269.809 824.034 261C824.034 252.191 822.156 244.035 818.4 236.531C814.644 228.864 809.336 222.258 802.478 216.712C795.619 211.002 787.535 206.598 778.227 203.498C768.919 200.236 758.63 198.605 747.362 198.605C736.094 198.605 725.725 200.236 716.253 203.498C706.945 206.598 698.861 211.002 692.002 216.712C685.143 222.258 679.836 228.864 676.08 236.531C672.487 244.035 670.691 252.191 670.691 261C670.691 269.809 672.487 278.047 676.08 285.713C679.836 293.217 685.143 299.824 692.002 305.533C698.861 311.079 706.945 315.484 716.253 318.746C725.725 321.846 736.094 323.395 747.362 323.395ZM1010.09 348.109C992.782 348.109 977.676 344.52 964.775 337.342C951.874 330.002 941.831 320.051 934.645 307.491C927.46 294.93 923.867 280.657 923.867 264.67V175.115H950.322V263.692C950.322 274.947 952.935 285.061 958.161 294.033C963.55 302.842 970.735 309.774 979.717 314.831C988.862 319.888 998.987 322.417 1010.09 322.417C1021.85 322.417 1032.3 319.888 1041.45 314.831C1050.59 309.774 1057.78 302.842 1063 294.033C1068.39 285.061 1071.09 274.947 1071.09 263.692V175.115H1096.32V264.67C1096.32 280.657 1092.72 294.93 1085.54 307.491C1078.35 320.051 1068.31 330.002 1055.41 337.342C1042.51 344.52 1027.4 348.109 1010.09 348.109ZM1184.49 346.641V320.459H1229.31V201.541H1184.49V175.359H1300.6V201.541H1255.77V320.459H1300.6V346.641H1184.49ZM1371.52 346.641V327.31L1497.67 196.647L1507.22 201.296H1377.89V175.359H1536.37V194.445L1410.22 325.353L1400.91 320.704H1539.07V346.641H1371.52ZM1610.05 346.641V320.459H1654.88V201.541H1610.05V175.359H1726.16V201.541H1681.33V320.459H1726.16V346.641H1610.05ZM1817.17 346.641V175.359H1959.49V200.807H1843.62V321.193H1959.49V346.641H1817.17ZM1831.62 271.522V246.074H1946.02V271.522H1831.62ZM2023.14 346.641V327.31L2149.29 196.647L2158.84 201.296H2029.51V175.359H2187.99V194.445L2061.84 325.353L2052.53 320.704H2190.69V346.641H2023.14Z" fill="#0082EC"/>
<path d="M393.033 392.602C413.336 412.882 446.783 413.094 462.496 389.081C480.03 362.285 492.37 332.255 498.685 300.546C508.399 251.763 503.413 201.198 484.357 155.245C465.303 109.292 433.034 70.016 391.632 42.3828C350.23 14.7493 301.555 2.27285e-06 251.761 0C201.967 -2.27285e-06 153.292 14.7493 111.89 42.3827C70.4884 70.016 38.2195 109.292 19.1643 155.245C0.109089 201.198 -4.87662 251.763 4.83762 300.546C11.1518 332.255 23.4922 362.285 41.026 389.081C56.7388 413.093 90.1855 412.882 110.488 392.602L215.012 288.193C235.314 267.913 268.208 267.913 288.51 288.193L393.033 392.602Z" fill="#0033FF"/>
</svg>
