<?xml version="1.0" encoding="UTF-8" standalone="no"?>
<svg
   width="518"
   height="518"
   viewBox="0 0 518 518"
   fill="none"
   version="1.1"
   id="svg2"
   sodipodi:docname="LOGO.svg"
   inkscape:version="1.3.2 (091e20e, 2023-11-25, custom)"
   xmlns:inkscape="http://www.inkscape.org/namespaces/inkscape"
   xmlns:sodipodi="http://sodipodi.sourceforge.net/DTD/sodipodi-0.dtd"
   xmlns="http://www.w3.org/2000/svg"
   xmlns:svg="http://www.w3.org/2000/svg">
  <defs
     id="defs2" />
  <sodipodi:namedview
     id="namedview2"
     pagecolor="#505050"
     bordercolor="#eeeeee"
     borderopacity="1"
     inkscape:showpageshadow="0"
     inkscape:pageopacity="0"
     inkscape:pagecheckerboard="0"
     inkscape:deskcolor="#505050"
     inkscape:zoom="0.60802792"
     inkscape:cx="346.20121"
     inkscape:cy="236.0089"
     inkscape:window-width="1366"
     inkscape:window-height="745"
     inkscape:window-x="-8"
     inkscape:window-y="-8"
     inkscape:window-maximized="1"
     inkscape:current-layer="svg2" />
  <path
     d="m 400.3812,457.72727 c 20.303,20.28 53.75,20.492 69.463,-3.521 17.534,-26.796 29.874,-56.826 36.189,-88.535 9.714,-48.783 4.728,-99.348 -14.328,-145.301 -19.054,-45.953 -51.323,-85.229 -92.725,-112.8622 -41.402,-27.633505 -90.077,-42.382802 -139.871,-42.382805 -49.794,-2e-6 -98.469,14.7493 -139.871,42.382705 -41.401605,27.6333 -73.670505,66.9093 -92.725705,112.8623 -19.0552107,45.953 -24.0409197,96.518 -14.32668,145.301 6.31418,31.709 18.65458,61.739 36.18838,88.535 15.7128,24.012 49.1595,23.801 69.462005,3.521 l 104.524,-104.409 c 20.302,-20.28 53.196,-20.28 73.498,0 z"
     fill="#0033ff"
     id="path2"
     style="stroke:#0043ff;stroke-opacity:1;stroke-dasharray:none;stroke-linejoin:miter;stroke-width:11.79999924;fill:#ffffff;fill-opacity:1" />
</svg>
